<svg width="512" height="512" viewBox="0 0 512 512" fill="none" xmlns="http://www.w3.org/2000/svg">
<g clip-path="url(#clip0_1_2)">
<rect width="512" height="512" rx="256" fill="white"/>
<path d="M256.5 217.5C254.167 239.5 252.75 255.75 252.25 266.25C251.75 276.75 251.917 283.833 252.75 287.5C253.583 291.167 254.833 293.833 256.5 295.5C258.5 297.5 260.833 298.75 263.5 299.25C266.167 299.75 270 300 275 300C287.333 300 298 298.083 307 294.25C316.167 290.25 323.75 284.583 329.75 277.25C335.75 269.75 340.167 260.667 343 250C345.833 239.333 347.167 227.333 347 214C346.833 189.667 341.417 170.417 330.75 156.25C320.083 142.083 304.833 135 285 135C281.5 135 278.583 135.333 276.25 136C274.083 136.667 272 138 270 140C268.833 141.167 267.75 142.75 266.75 144.75C265.917 146.583 265.083 149.917 264.25 154.75C263.417 159.583 262.333 166.917 261 176.75C259.833 186.583 258.333 200.167 256.5 217.5ZM157.5 425C157.167 394.833 157.25 363.417 157.75 330.75C158.25 297.917 159 266.167 160 235.5C161.167 204.667 162.5 177.167 164 153C165.167 136.167 167.75 123.917 171.75 116.25C175.75 108.583 182.583 103.667 192.25 101.5C201.917 99.3333 215.667 98.1667 233.5 98C251.833 97.6667 267.667 98.0833 281 99.25C294.333 100.25 305.75 102 315.25 104.5C324.917 106.833 333.167 109.917 340 113.75C346.833 117.417 352.833 121.833 358 127C368 137 375.417 149.25 380.25 163.75C385.083 178.083 387.5 194.667 387.5 213.5C387.5 235.167 384.833 253.083 379.5 267.25C374.167 281.25 367.167 292.667 358.5 301.5C349.333 310.667 340 317.5 330.5 322C321 326.5 310.25 329.583 298.25 331.25C286.25 332.917 271.833 334.167 255 335C241.833 335.5 231.417 336.667 223.75 338.5C216.083 340.333 210.583 343.5 207.25 348C204.083 352.333 202.5 358.667 202.5 367C202.5 378.5 203 389.667 204 400.5C205 411.333 205.5 421.167 205.5 430C205.5 439.167 203.833 446.833 200.5 453C197.333 459 191 462 181.5 462C172.833 462 166.667 459 163 453C159.333 447.167 157.5 437.833 157.5 425ZM345.5 288.5C348 290.167 349.167 292.167 349 294.5C348.833 296.833 348 299.167 346.5 301.5C345 303.667 342.917 305.333 340.25 306.5C337.583 307.5 335 307.5 332.5 306.5C331.833 306.167 331.167 305.833 330.5 305.5C330 305.167 329.333 304.667 328.5 304C326.833 302.167 326 300.25 326 298.25C326.167 296.083 327 294 328.5 292C330.333 289.667 332.5 287.833 335 286.5C337.667 285.167 340 285.167 342 286.5C342.5 286.667 343.083 287 343.75 287.5C344.417 287.833 345 288.167 345.5 288.5ZM358.5 152.5C361 151.667 363.333 151.833 365.5 153C367.833 154 370 157.167 372 162.5C374.5 168.167 375.25 172.25 374.25 174.75C373.25 177.083 371.833 178.5 370 179C369.333 179.167 368.667 179.417 368 179.75C367.5 179.917 366.833 180.167 366 180.5C363.333 181.333 360.167 181.333 356.5 180.5C352.833 179.667 350.083 177 348.25 172.5C346.417 167.833 346.25 163.917 347.75 160.75C349.417 157.583 351.333 155.5 353.5 154.5C354.333 154.167 355.167 153.833 356 153.5C357 153 357.833 152.667 358.5 152.5ZM235.5 364.5C247.833 366 256.917 368.167 262.75 371C268.583 373.833 271.5 378.333 271.5 384.5C271.5 392.167 267.667 396.917 260 398.75C252.5 400.583 242.833 401.167 231 400.5C217 399.5 203.083 398.25 189.25 396.75C175.417 395.25 161.5 393.5 147.5 391.5C136.5 390 128.417 387.917 123.25 385.25C118.083 382.583 115.5 378.167 115.5 372C115.5 365.167 118.75 360.917 125.25 359.25C131.917 357.583 140.833 357 152 357.5C166 358.167 179.917 359.083 193.75 360.25C207.583 361.25 221.5 362.667 235.5 364.5ZM213.5 183C219 183 223.583 181.25 227.25 177.75C231.083 174.083 233 169.167 233 163C233 156.667 231.333 151.917 228 148.75C224.667 145.583 220 144 214 144C206.833 144 201.667 145.833 198.5 149.5C195.5 153.167 194 157.5 194 162.5C194 168.667 195.583 173.667 198.75 177.5C201.917 181.167 206.833 183 213.5 183ZM208 255C216 255 222 253.083 226 249.25C230 245.25 232 240.667 232 235.5C232 227.5 230.167 221.5 226.5 217.5C222.833 213.5 217.5 211.5 210.5 211.5C203.333 211.5 197.667 213.333 193.5 217C189.5 220.667 187.5 226 187.5 233C187.5 239.667 189.5 245 193.5 249C197.5 253 202.333 255 208 255Z" fill="black"/>
</g>
<defs>
<clipPath id="clip0_1_2">
<rect width="512" height="512" rx="256" fill="white"/>
</clipPath>
</defs>
</svg>
